<?xml version="1.0" encoding="iso-8859-1"?>
<!-- Generator: Adobe Illustrator 19.0.0, SVG Export Plug-In . SVG Version: 6.00 Build 0)  -->
<svg version="1.1" id="Capa_1" xmlns="http://www.w3.org/2000/svg" xmlns:xlink="http://www.w3.org/1999/xlink" x="0px" y="0px"
	 viewBox="0 0 60 60" style="enable-background:new 0 0 60 60;" xml:space="preserve">
<g>
	<g>
		<g>
			<path d="M60,47L60,47V9c0-0.6-0.4-1-1-1H23v2h35v6H32c-0.6,0-1,0.4-1,1v6H19v2h13c0.6,0,1-0.4,1-1v-6h25v4H40c-0.6,0-1,0.4-1,1
				v35h-4V45c0-0.6-0.4-1-1-1H2v-4h32c0.6,0,1-0.4,1-1v-8c0-0.6-0.4-1-1-1H2v-5h7v-2H2V10h3V8H1C0.4,8,0,8.4,0,9v50c0,0.6,0.4,1,1,1
				h46c0.3,0,0.5-0.1,0.7-0.3l12-12c0.1-0.1,0.1-0.2,0.2-0.3v-0.1C60,47.2,60,47.1,60,47z M41,24h17v22H47c-0.6,0-1,0.4-1,1v11h-5
				V24z M52.3,52.3L48,56.6V48h8.6L52.3,52.3z M33,32v6H2v-6H33z M2,46h31v12H2V46z"/>
			<path d="M7,7h1v8c0,0.6,0.4,1,1,1h4v8h2v-8h4c0.6,0,1-0.4,1-1V7h1c0.6,0,1-0.4,1-1V1c0-0.6-0.4-1-1-1H7C6.4,0,6,0.4,6,1v5
				C6,6.6,6.4,7,7,7z M18,14h-8V7h8V14z M8,2h12v3h-1H9H8V2z"/>
		</g>
	</g>
	<g>
	</g>
	<g>
	</g>
	<g>
	</g>
	<g>
	</g>
	<g>
	</g>
	<g>
	</g>
	<g>
	</g>
	<g>
	</g>
	<g>
	</g>
	<g>
	</g>
	<g>
	</g>
	<g>
	</g>
	<g>
	</g>
	<g>
	</g>
	<g>
	</g>
</g>
<g>
</g>
<g>
</g>
<g>
</g>
<g>
</g>
<g>
</g>
<g>
</g>
<g>
</g>
<g>
</g>
<g>
</g>
<g>
</g>
<g>
</g>
<g>
</g>
<g>
</g>
<g>
</g>
<g>
</g>
</svg>
